<svg xmlns="http://www.w3.org/2000/svg" width="67.672" height="78.14" viewBox="0 0 67.672 78.14"><g transform="translate(-927 -3594.832)"><path d="M47.441,63.708V44.555h8.432V40.83H34.826v3.725h8.432V63.708Z" transform="translate(915.819 3581.723)" fill="#c90001"/><g transform="translate(927 3594.832)"><path d="M33.836,0,0,19.535V50.6H14.707A7.61,7.61,0,0,0,20.3,48.687a7.559,7.559,0,0,0,1.928-5.605V35.238a7.558,7.558,0,0,0-1.928-5.6,7.607,7.607,0,0,0-5.589-1.912H4.029V21.861L33.836,4.651,63.643,21.861v2.414h4.028v-4.74ZM4.184,31.316h9.674q4.183,0,4.184,4.183V42.82Q18.042,47,13.858,47H4.184Z" fill="#c90001"/><path d="M63.028,50.69,52.5,49.71a3.066,3.066,0,0,1-1.747-.574,2.243,2.243,0,0,1-.474-1.657V46.362a1.849,1.849,0,0,1,2.223-2.231h8.432a1.871,1.871,0,0,1,2.222,2.222v.719h4.053v-1.6a4.752,4.752,0,0,0-1.144-3.514,4.8,4.8,0,0,0-3.5-1.127H50.742a4.792,4.792,0,0,0-3.513,1.127A4.792,4.792,0,0,0,46.1,45.471v2.974a4.534,4.534,0,0,0,1.094,3.4,5.7,5.7,0,0,0,3.546,1.242L61.266,54.1a3.087,3.087,0,0,1,1.748.572,2.23,2.23,0,0,1,.474,1.651v1.863a1.871,1.871,0,0,1-2.222,2.222H52.049a1.845,1.845,0,0,1-2.223-2.222V57.008H45.774v2.059A4.793,4.793,0,0,0,46.9,62.58a4.794,4.794,0,0,0,3.514,1.128H63.03c.212,0,.416-.008.612-.022v5.7L33.836,86.6,4.029,69.387V66.994H0v4.719L33.836,91.248,67.672,71.713V55.323a4.46,4.46,0,0,0-1.1-3.376,5.918,5.918,0,0,0-3.547-1.256" transform="translate(0 -13.109)" fill="#c90001"/><rect width="67.671" height="78.14" fill="none"/></g></g></svg>