<svg xmlns="http://www.w3.org/2000/svg" xmlns:xlink="http://www.w3.org/1999/xlink" width="247" height="82.45" viewBox="0 0 247 82.45"><defs><clipPath id="a"><rect width="247" height="82.45" fill="none"/></clipPath></defs><g transform="translate(-715 -398)"><g transform="translate(715 398)"><g clip-path="url(#a)"><path d="M299.977,73.195c-15.426,2.571-28.584,17.727-28.584,17.727h9.042s14.241-17.305,31.009-16.2c0,0-14.784.391-26.434,16.2h10.527s6.773-15.1,28.43-15.1c0,0-7.918-5.3-23.991-2.625" transform="translate(-76.967 -20.544)" fill="#c90001"/><path d="M125.354,39.445a4.149,4.149,0,0,0,1.055-3.074v-3.3A4.149,4.149,0,0,0,125.354,30a4.174,4.174,0,0,0-3.066-1.047h-7.747V40.492h7.747a4.171,4.171,0,0,0,3.066-1.047M118.1,37.476V31.97h3.429a1.165,1.165,0,0,1,1.318,1.319v2.868a1.165,1.165,0,0,1-1.318,1.319Z" transform="translate(-32.484 -8.211)"/><rect width="3.626" height="11.538" transform="translate(95.442 20.743)"/><path d="M143.007,40.492H149.5a2.709,2.709,0,0,0,1.97-.626,2.677,2.677,0,0,0,.634-1.976V36.129a2.537,2.537,0,0,0-.61-1.911,3.262,3.262,0,0,0-1.994-.691l-4.649-.413a.945.945,0,0,1-.569-.181.745.745,0,0,1-.156-.547v-.215a.6.6,0,0,1,.725-.728h2.868a.6.6,0,0,1,.725.725v.33h3.429v-.939a2.683,2.683,0,0,0-.634-1.978,2.71,2.71,0,0,0-1.97-.627h-6.1a2.707,2.707,0,0,0-1.969.627,2.68,2.68,0,0,0-.635,1.978v1.549a2.514,2.514,0,0,0,.61,1.9,3.327,3.327,0,0,0,1.994.709l4.648.412a.976.976,0,0,1,.577.173.763.763,0,0,1,.148.552v.412a.6.6,0,0,1-.726.726h-3.263a.6.6,0,0,1-.726-.726v-.478H140.4v1.1a2.26,2.26,0,0,0,2.6,2.6" transform="translate(-39.818 -8.211)"/><path d="M162.3,37.195h4.648a3.144,3.144,0,0,0,2.292-.709,3.144,3.144,0,0,0,.709-2.291V31.954a3.146,3.146,0,0,0-.709-2.291,3.147,3.147,0,0,0-2.292-.709h-8.208V40.492H162.3Zm0-5.488h3.2a.729.729,0,0,1,.89.89v1.088a.729.729,0,0,1-.89.89h-3.2Z" transform="translate(-45.019 -8.211)"/><path d="M176.946,40.492l.643-1.8h4.73l.643,1.8H186.9l-4.829-11.539h-4.038l-4.846,11.539Zm3.017-8.341,1.467,4.088h-2.951Z" transform="translate(-49.116 -8.211)"/><path d="M193.019,40.492h3.56V32.1H200.3V28.954H189.294V32.1h3.725Z" transform="translate(-53.684 -8.211)"/><path d="M209.1,40.492h4.912a3.447,3.447,0,0,0,2.513-.807,3.422,3.422,0,0,0,.816-2.522V35.581h-3.428v.89a1.127,1.127,0,0,1-.239.824,1.155,1.155,0,0,1-.816.231h-2.472a.873.873,0,0,1-1.055-1.055V32.976a.873.873,0,0,1,1.055-1.055h2.472a1.158,1.158,0,0,1,.816.231,1.128,1.128,0,0,1,.239.824v.775h3.428V32.284a3.42,3.42,0,0,0-.816-2.522,3.444,3.444,0,0,0-2.513-.808H209.1a3.446,3.446,0,0,0-2.514.808,3.42,3.42,0,0,0-.815,2.522v4.879a3.421,3.421,0,0,0,.815,2.522,3.449,3.449,0,0,0,2.514.807" transform="translate(-58.356 -8.211)"/><path d="M227.435,36.108h4.417v4.384h3.56V28.954h-3.56v3.989h-4.417V28.954h-3.561V40.492h3.561Z" transform="translate(-63.491 -8.212)"/><path d="M251.466,40.492H257.5a2.26,2.26,0,0,0,2.6-2.6V35.663h1.648V33.537H253.51a.6.6,0,0,1-.726-.726v-.643a.6.6,0,0,1,.726-.725h2.076a.8.8,0,0,1,.577.156.833.833,0,0,1,.148.569v.33h3.3v-.94a2.682,2.682,0,0,0-.635-1.977,2.709,2.709,0,0,0-1.97-.627H251.96a2.709,2.709,0,0,0-1.97.627,2.679,2.679,0,0,0-.635,1.977V32.4a2.048,2.048,0,0,0,1.088,2.126q-1.583.313-1.583,2.275v1.088a2.68,2.68,0,0,0,.635,1.978,2.708,2.708,0,0,0,1.97.626m.824-4.1a.6.6,0,0,1,.725-.725h3.791v1.615a.6.6,0,0,1-.725.726h-3.066a.6.6,0,0,1-.725-.726Z" transform="translate(-70.577 -8.211)"/><path d="M117.438,61.03H121V52.64h3.725V49.492h-11.01V52.64h3.725Z" transform="translate(-32.249 -14.036)"/><path d="M134.023,57.321H136l2.308,3.709h3.857l-2.588-4.038a2.321,2.321,0,0,0,1.59-.882,3.5,3.5,0,0,0,.5-2.052V52.492a2.57,2.57,0,0,0-3-3h-8.209V61.03h3.561Zm0-5.208h3.2a.729.729,0,0,1,.89.89v.89a.729.729,0,0,1-.89.89h-3.2Z" transform="translate(-36.999 -14.036)"/><path d="M151.782,49.493,146.936,61.03h3.758l.643-1.8h4.73l.643,1.8h3.939l-4.829-11.537Zm.445,7.284,1.484-4.088,1.467,4.088Z" transform="translate(-41.671 -14.036)"/><path d="M179,49.492h-3.429V55.82l-5.45-6.328h-2.989V61.03h3.429V54.536l5.571,6.494H179Z" transform="translate(-47.4 -14.036)"/><path d="M194.826,61.03a2.71,2.71,0,0,0,1.97-.626,2.677,2.677,0,0,0,.634-1.976V56.667a2.537,2.537,0,0,0-.61-1.911,3.258,3.258,0,0,0-1.994-.691l-4.648-.413a.943.943,0,0,1-.569-.181.745.745,0,0,1-.156-.547v-.215a.6.6,0,0,1,.725-.728h2.868a.6.6,0,0,1,.725.725v.33H197.2V52.1a2.261,2.261,0,0,0-2.6-2.6h-6.1a2.71,2.71,0,0,0-1.97.627,2.683,2.683,0,0,0-.634,1.978v1.549a2.514,2.514,0,0,0,.61,1.9,3.325,3.325,0,0,0,1.994.709l4.648.412a.972.972,0,0,1,.577.173.762.762,0,0,1,.149.552V57.8a.6.6,0,0,1-.726.726h-3.264a.6.6,0,0,1-.725-.726v-.478h-3.428v1.1a2.259,2.259,0,0,0,2.6,2.6Z" transform="translate(-52.673 -14.036)"/><path d="M214.565,57.024a3.144,3.144,0,0,0,.709-2.291V52.492a2.57,2.57,0,0,0-3-3h-8.208V61.03h3.561v-3.3h4.648a3.144,3.144,0,0,0,2.292-.709m-2.852-2.8a.728.728,0,0,1-.89.89h-3.2V52.244h3.2a.729.729,0,0,1,.89.89Z" transform="translate(-57.873 -14.036)"/><path d="M232.4,60.223a3.421,3.421,0,0,0,.816-2.522V52.822a2.9,2.9,0,0,0-3.33-3.33h-5.374a2.9,2.9,0,0,0-3.329,3.33V57.7a2.9,2.9,0,0,0,3.329,3.33h5.374a3.448,3.448,0,0,0,2.514-.807m-2.745-3.264a1.127,1.127,0,0,1-.239.824,1.16,1.16,0,0,1-.817.231h-2.8a.873.873,0,0,1-1.055-1.055v-3.4a.873.873,0,0,1,1.055-1.055h2.8a1.16,1.16,0,0,1,.817.231,1.128,1.128,0,0,1,.239.824Z" transform="translate(-62.728 -14.036)"/><path d="M249.1,56.992a2.324,2.324,0,0,0,1.59-.882,3.5,3.5,0,0,0,.5-2.052V52.492a2.57,2.57,0,0,0-3-3H239.98V61.03h3.561V57.322h1.978l2.308,3.708h3.857Zm-1.467-3.1a.728.728,0,0,1-.89.89h-3.2v-2.67h3.2a.729.729,0,0,1,.89.89Z" transform="translate(-68.059 -14.036)"/><path d="M256.868,52.64h3.725v8.39h3.561V52.64h3.725V49.492H256.868Z" transform="translate(-72.848 -14.036)"/><path d="M273.049,61.03l.643-1.8h4.73l.643,1.8h3.939l-4.829-11.538h-4.038L269.291,61.03Zm3.017-8.34,1.467,4.088h-2.951Z" transform="translate(-76.371 -14.036)"/><path d="M289.122,61.03h3.56V52.64h3.725V49.492H285.4V52.64h3.725Z" transform="translate(-80.939 -14.036)"/><rect width="3.626" height="11.538" transform="translate(216.524 35.456)"/><path d="M312.747,61.03h5.374a2.9,2.9,0,0,0,3.329-3.33V52.822a2.9,2.9,0,0,0-3.329-3.33h-5.374a2.9,2.9,0,0,0-3.33,3.33V57.7a2.9,2.9,0,0,0,3.33,3.33m.231-7.467a.873.873,0,0,1,1.055-1.055h2.8a1.158,1.158,0,0,1,.816.231,1.129,1.129,0,0,1,.239.824v3.4a1.129,1.129,0,0,1-.239.824,1.158,1.158,0,0,1-.816.231h-2.8a.873.873,0,0,1-1.055-1.055Z" transform="translate(-87.751 -14.036)"/><path d="M336.654,49.492V55.82l-5.45-6.328h-2.989V61.03h3.428V54.536l5.571,6.494h2.868V49.492Z" transform="translate(-93.082 -14.036)"/><path d="M114.358,77.86v1.1a2.261,2.261,0,0,0,2.6,2.6h6.494a2.709,2.709,0,0,0,1.97-.626,2.677,2.677,0,0,0,.635-1.976V77.2a2.536,2.536,0,0,0-.61-1.91,3.266,3.266,0,0,0-1.994-.692l-4.649-.412a.935.935,0,0,1-.568-.182.742.742,0,0,1-.157-.546v-.215a.6.6,0,0,1,.725-.728h2.868a.6.6,0,0,1,.726.725v.33h3.429v-.94a2.261,2.261,0,0,0-2.6-2.6h-6.1a2.707,2.707,0,0,0-1.969.627,2.679,2.679,0,0,0-.635,1.977v1.55a2.518,2.518,0,0,0,.61,1.9,3.328,3.328,0,0,0,1.994.709l4.649.412a.981.981,0,0,1,.577.173.766.766,0,0,1,.148.552v.412a.6.6,0,0,1-.725.726h-3.264a.6.6,0,0,1-.725-.726V77.86Z" transform="translate(-32.432 -19.861)"/><path d="M142.815,78.75h-6.56V76.9h5.736V74.464h-5.736V72.849h6.4V70.031h-9.956V81.568h10.121Z" transform="translate(-37.632 -19.861)"/><path d="M156.324,81.568h3.857l-2.588-4.038a2.324,2.324,0,0,0,1.59-.882,3.5,3.5,0,0,0,.5-2.052V73.03a2.57,2.57,0,0,0-3-3h-8.208V81.568h3.561V77.859h1.978Zm-4.285-8.917h3.2a.729.729,0,0,1,.89.89v.89a.729.729,0,0,1-.89.89h-3.2Z" transform="translate(-42.109 -19.861)"/><path d="M172.641,81.568l4.9-11.538h-3.709l-2.819,7.418-2.835-7.418h-3.89l4.9,11.538Z" transform="translate(-46.591 -19.861)"/><rect width="3.626" height="11.538" transform="translate(131.835 50.169)"/><path d="M202.774,78.238V76.657h-3.429v.89a1.127,1.127,0,0,1-.239.824,1.16,1.16,0,0,1-.816.231h-2.472a.873.873,0,0,1-1.055-1.055V74.052A.873.873,0,0,1,195.819,73h2.472a1.16,1.16,0,0,1,.816.231,1.128,1.128,0,0,1,.239.824v.775h3.429V73.36a2.9,2.9,0,0,0-3.329-3.33h-4.912a2.9,2.9,0,0,0-3.33,3.33v4.879a2.9,2.9,0,0,0,3.33,3.33h4.912a2.9,2.9,0,0,0,3.329-3.33" transform="translate(-54.225 -19.861)"/><path d="M219.431,78.75h-6.56V76.9h5.736V74.464h-5.736V72.849h6.4V70.031h-9.956V81.568h10.121Z" transform="translate(-59.361 -19.861)"/><rect width="3.626" height="11.538" transform="translate(166.268 50.169)"/><path d="M242.439,70.03H239.45V81.569h3.429V75.074l5.571,6.494h2.868V70.03H247.89v6.328Z" transform="translate(-67.908 -19.861)"/><path d="M269.612,78.238V76.657h-3.429v.89a1.127,1.127,0,0,1-.239.824,1.159,1.159,0,0,1-.816.231h-2.472a.873.873,0,0,1-1.055-1.055V74.052A.873.873,0,0,1,262.657,73h2.472a1.159,1.159,0,0,1,.816.231,1.128,1.128,0,0,1,.239.824v.775h3.429V73.36a2.9,2.9,0,0,0-3.329-3.33h-4.912a2.9,2.9,0,0,0-3.33,3.33v4.879a2.9,2.9,0,0,0,3.33,3.33h4.912a2.9,2.9,0,0,0,3.329-3.33" transform="translate(-73.181 -19.861)"/><path d="M48.137,64.97V44.761h8.9V40.83H34.826v3.931h8.9V64.97Z" transform="translate(-9.877 -11.579)" fill="#c90001"/><path d="M35.7,0,0,20.612V53.39H15.519a8.03,8.03,0,0,0,5.9-2.017,7.976,7.976,0,0,0,2.035-5.915V37.182a7.975,7.975,0,0,0-2.035-5.914,8.027,8.027,0,0,0-5.9-2.017H4.251V23.067L35.7,4.908,67.154,23.067v2.547H71.4v-5ZM4.414,33.044H14.622q4.413,0,4.414,4.414v7.725q0,4.416-4.414,4.414H4.414Z" fill="#c90001"/><path d="M66.505,51.234,55.4,50.2a3.236,3.236,0,0,1-1.843-.606,2.367,2.367,0,0,1-.5-1.749V46.667A1.951,1.951,0,0,1,55.4,44.313h8.9a1.975,1.975,0,0,1,2.345,2.345v.759h4.277v-1.69a5.014,5.014,0,0,0-1.207-3.707,5.069,5.069,0,0,0-3.69-1.189H53.541a5.056,5.056,0,0,0-3.707,1.189,5.056,5.056,0,0,0-1.19,3.707v3.139A4.784,4.784,0,0,0,49.8,52.451a6.019,6.019,0,0,0,3.742,1.31l11.1,1.069a3.258,3.258,0,0,1,1.845.6,2.353,2.353,0,0,1,.5,1.742v1.966a1.975,1.975,0,0,1-2.345,2.345H54.921a1.947,1.947,0,0,1-2.345-2.345V57.9H48.3v2.173a5.057,5.057,0,0,0,1.19,3.707A5.058,5.058,0,0,0,53.2,64.97H66.508c.224,0,.438-.009.646-.023v6.016L35.7,89.121,4.251,70.962V68.437H0v4.98L35.7,94.03,71.4,73.417V56.122a4.707,4.707,0,0,0-1.156-3.563,6.245,6.245,0,0,0-3.743-1.325" transform="translate(0 -11.579)" fill="#c90001"/></g></g></g></svg>